<?xml version="1.0" encoding="UTF-8" standalone="no"?>
<!-- Created with Inkscape (http://www.inkscape.org/) -->

<svg
   width="100mm"
   height="100mm"
   viewBox="0 0 100 100"
   version="1.1"
   id="svg5"
   inkscape:version="1.1.2 (b8e25be833, 2022-02-05)"
   sodipodi:docname="シジュウカラ over40カラー羽修正2.svg"
   xmlns:inkscape="http://www.inkscape.org/namespaces/inkscape"
   xmlns:sodipodi="http://sodipodi.sourceforge.net/DTD/sodipodi-0.dtd"
   xmlns="http://www.w3.org/2000/svg"
   xmlns:svg="http://www.w3.org/2000/svg">
  <sodipodi:namedview
     id="namedview7"
     pagecolor="#ffffff"
     bordercolor="#666666"
     borderopacity="1.0"
     inkscape:pageshadow="2"
     inkscape:pageopacity="0.0"
     inkscape:pagecheckerboard="0"
     inkscape:document-units="mm"
     showgrid="false"
     inkscape:zoom="2"
     inkscape:cx="237"
     inkscape:cy="164.75"
     inkscape:window-width="1920"
     inkscape:window-height="1001"
     inkscape:window-x="-9"
     inkscape:window-y="-9"
     inkscape:window-maximized="1"
     inkscape:current-layer="layer9" />
  <defs
     id="defs2" />
  <g
     inkscape:groupmode="layer"
     id="layer5"
     inkscape:label="足"
     style="display:inline;opacity:1">
    <path
       style="opacity:1;fill:#191a53;fill-opacity:1;stroke:#000000;stroke-width:0.691;stroke-linecap:round;stroke-linejoin:round;stroke-miterlimit:4;stroke-dasharray:none;stroke-opacity:1;paint-order:markers stroke fill"
       d="m 37.543864,84.116229 c -0.329684,-0.637537 -0.380794,-2.157645 -0.103817,-3.087584 0.272714,-0.915617 0.149976,-2.13641 -0.221711,-2.205207 -0.328977,-0.06089 -0.418383,0.03607 -0.903374,0.97976 -1.025218,1.99485 -1.387661,2.312564 -1.982764,1.738077 l -0.256947,-0.248047 0.05684,-0.67958 c 0.15612,-1.866606 0.645028,-2.37731 2.578846,-2.693818 0.759719,-0.124341 1.294881,-0.371125 1.475518,-0.680418 0.0696,-0.119166 0.182195,-0.433914 0.250216,-0.699445 0.06802,-0.265527 0.169503,-0.592457 0.225513,-0.726506 0.08781,-0.210161 0.124203,-0.238111 0.26426,-0.202959 0.278199,0.06982 0.252069,0.227663 0.859809,-5.193281 0.128169,-1.143236 0.241818,-2.087393 0.252555,-2.09813 0.02408,-0.02405 1.434629,0.765355 1.434629,0.802886 0,0.01484 -0.0298,0.169831 -0.06621,0.344429 -0.08285,0.397224 -0.661395,5.356905 -0.661395,5.669902 0,0.150426 0.04015,0.252878 0.115755,0.29541 0.09804,0.05515 0.114834,0.159411 0.109728,0.681281 -0.0033,0.338891 -0.05784,0.919903 -0.121174,1.291132 -0.06333,0.371232 -0.09754,0.730427 -0.07603,0.798211 0.02151,0.06778 0.203417,0.265091 0.404228,0.438459 0.77755,0.671285 1.09233,1.400646 1.083525,2.510568 -0.0029,0.369065 -0.04013,0.804971 -0.08268,0.968682 -0.07241,0.278609 -0.09293,0.298953 -0.320757,0.31791 -0.266361,0.02217 -0.670263,-0.150855 -0.871421,-0.373287 -0.111593,-0.123394 -0.118306,-0.210566 -0.07459,-0.968537 0.04306,-0.746553 0.03585,-0.846412 -0.06952,-0.962845 -0.141605,-0.156472 -0.273064,-0.160636 -0.901052,-0.02853 -0.803307,0.168981 -0.934606,0.382511 -1.250971,2.034426 -0.112946,0.589751 -0.258977,1.19498 -0.324514,1.344954 -0.120362,0.275431 -0.564452,0.818726 -0.66923,0.818726 -0.03121,0 -0.100181,-0.08398 -0.153262,-0.186634 z"
       id="path10480" />
    <path
       style="display:inline;fill:#191a53;fill-opacity:1;stroke:#000000;stroke-width:0.783;stroke-linecap:round;stroke-linejoin:round;stroke-miterlimit:4;stroke-dasharray:none;stroke-opacity:1;paint-order:markers stroke fill"
       d="m 56.587695,86.340729 c 0.493679,-0.575712 0.829561,-2.100397 0.682233,-3.096879 -0.145058,-0.981135 0.218189,-2.18871 0.65616,-2.18133 0.387646,0.0065 0.472284,0.12294 0.855184,1.176336 0.809411,2.226735 1.166271,2.622567 1.952233,2.16542 l 0.339356,-0.197383 0.05895,-0.698104 c 0.161925,-1.91749 -0.304467,-2.534386 -2.460084,-3.253952 -0.846857,-0.282685 -1.414349,-0.642598 -1.56466,-0.992328 -0.05791,-0.134743 -0.129354,-0.475914 -0.158756,-0.758156 -0.02941,-0.282241 -0.08589,-0.633413 -0.125542,-0.78038 -0.06216,-0.230416 -0.09871,-0.266169 -0.265425,-0.259629 -0.331158,0.01299 -0.330052,0.177805 -0.03645,-5.422829 0.06192,-1.181132 0.104125,-2.158199 0.0938,-2.171262 -0.02318,-0.02927 -1.78168,0.476306 -1.788529,0.51421 -0.0027,0.01499 0.0031,0.177684 0.01292,0.361551 0.02235,0.418317 -0.220503,5.547053 -0.277618,5.863169 -0.02745,0.151924 -0.09207,0.247099 -0.186394,0.274416 -0.122281,0.03542 -0.160525,0.137252 -0.249908,0.665376 -0.0581,0.342944 -0.101644,0.941034 -0.09691,1.329055 0.0047,0.388029 -0.02165,0.757874 -0.05863,0.821888 -0.03699,0.06401 -0.281197,0.225666 -0.54267,0.359236 -1.012448,0.517178 -1.505823,1.188712 -1.698281,2.311513 -0.064,0.373347 -0.100952,0.821292 -0.08212,0.995433 0.03204,0.296358 0.05183,0.321152 0.309115,0.387407 0.300823,0.07747 0.794685,-0.01375 1.065511,-0.1968 0.150241,-0.101546 0.17383,-0.188199 0.262093,-0.962764 0.08694,-0.762898 0.113415,-0.862259 0.255269,-0.958062 0.190626,-0.128748 0.341849,-0.105768 1.036513,0.157519 0.888598,0.336785 0.999913,0.579595 1.060575,2.313392 0.02166,0.618983 0.07836,1.260441 0.126004,1.425463 0.0875,0.303065 0.496652,0.94361 0.616574,0.965277 0.03573,0.0065 0.129991,-0.0641 0.209477,-0.1568 z"
       id="path10480-9" />
  </g>
  <g
     inkscape:groupmode="layer"
     id="layer14"
     inkscape:label="下の足"
     style="display:inline">
    <path
       style="fill:#961719;fill-opacity:1;stroke:#000000;stroke-width:0.264583px;stroke-linecap:butt;stroke-linejoin:miter;stroke-opacity:1"
       d="m 39.054812,75.403691 0.604208,-7.486784 c 0.661752,0.362525 1.022283,0.513254 1.985256,1.087576 l -0.707787,6.156447 c 0,0 -0.552418,1.106996 -1.881677,0.242761 z"
       id="path84983"
       sodipodi:nodetypes="ccccc" />
    <path
       style="fill:#961719;fill-opacity:1;stroke:#000000;stroke-width:0.264583px;stroke-linecap:butt;stroke-linejoin:miter;stroke-opacity:1"
       d="m 54.315378,76.462135 0.189894,-6.408922 2.365044,-0.495233 -0.310733,7.574178 c 0,0 -1.501889,1.174969 -2.244201,-0.670023 z"
       id="path85018"
       sodipodi:nodetypes="ccccsc" />
  </g>
  <g
     inkscape:groupmode="layer"
     id="layer2"
     inkscape:label="左羽"
     style="display:inline">
    <path
       id="path6181"
       style="opacity:1;fill:#191a53;fill-opacity:1;stroke:#000000;stroke-width:1.53449;stroke-linecap:square;stroke-linejoin:round;stroke-miterlimit:4;stroke-dasharray:none;stroke-opacity:1;paint-order:markers fill stroke"
       d="m 65.271484,52.851562 c -1.244495,-0.03603 -2.324581,0.286607 -3.197265,0.955079 -4.408788,3.376781 -2.655475,14.638209 3.916015,25.152343 3.172492,5.075886 9.431641,15.210938 9.431641,15.210938 v 0 c -1.90145,-3.318421 -4.512516,-6.671151 -7.529297,-9.667969 -8.799061,-8.73381 -18.78589,-12.33295 -22.30664,-8.039062 -3.521457,4.294175 0.758265,14.857063 9.558593,23.591799 4.647659,4.61255 8.832171,10.65885 13.269531,11.9414 v 0 c -1.774257,-1.45219 -4.05765,-1.92869 -6.072303,-3.14737 -10.611156,-6.41151 -20.811101,-8.43652 -23.218712,-3.4327 -2.407584,5.00388 4.242477,14.258 14.853515,20.66992 0.880666,0.53231 4.248923,3.33355 5.148703,3.80396 -7.867883,-1.69571 -16.199501,-2.675 -17.445577,1.07299 -1.745004,5.27175 6.039303,13.59471 17.386718,18.58984 2.660121,1.17114 5.374424,2.09116 7.992188,2.70899 40.118266,15.10262 49.978516,6.36328 49.978516,6.36328 v 0 c 0,0 39.92273,-40.77448 13.7793,-47.62109 -19.18996,-5.0256 -33.050357,-20.772313 -40.53516,-29.730472 0,0 -5.720575,-10.372361 -8.326172,-14.542969 C 76.857897,58.574122 70.148263,52.992448 65.271484,52.851562 Z"
       transform="scale(0.26458333)"
       sodipodi:nodetypes="ccsccccccccccccccccsccc" />
  </g>
  <g
     inkscape:label="胴全体"
     inkscape:groupmode="layer"
     id="layer1"
     style="display:inline;opacity:1">
    <path
       style="fill:#191a53;fill-opacity:1;stroke:#000000;stroke-width:0.665;stroke-linecap:butt;stroke-linejoin:miter;stroke-miterlimit:4;stroke-dasharray:none;stroke-opacity:1"
       d="m 51.572816,15.715448 c 0,0 -10.495955,-2.65161 -17.124979,14.477685 -6.629024,17.129294 -7.941019,39.308042 13.119941,40.628667 21.060963,1.320626 20.39493,-15.29984 20.39493,-15.29984 0,0 0.635777,-18.576668 -3.82237,-28.16429 -4.086391,-8.788128 -5.04082,-10.049702 -12.567522,-11.642222 z"
       id="path1610"
       sodipodi:nodetypes="csscsc" />
  </g>
  <g
     inkscape:groupmode="layer"
     id="layer7"
     inkscape:label="体模様"
     style="display:inline">
    <path
       style="fill:none;stroke:#000000;stroke-width:0.465;stroke-linecap:butt;stroke-linejoin:miter;stroke-miterlimit:4;stroke-dasharray:none;stroke-opacity:1"
       d="m 42.454454,31.775942 c -5.731343,10.370796 -9.828683,3.896876 -9.828683,3.896876 l 4.192198,-10.733057 z"
       id="path11040"
       sodipodi:nodetypes="cccc" />
    <path
       style="opacity:1;fill:#191a53;fill-opacity:1;stroke:#000000;stroke-width:0.465;stroke-linecap:butt;stroke-linejoin:miter;stroke-miterlimit:4;stroke-dasharray:none;stroke-opacity:1"
       d="m 54.044266,31.627911 10.721828,-3.112836 c 0,0 0.758124,2.442813 1.068859,3.95765 0.310735,1.514835 -8.234491,17.216687 -11.790687,-0.844814 z"
       id="path11042"
       sodipodi:nodetypes="ccsc" />
    <path
       style="fill:none;stroke:#000000;stroke-width:0.465;stroke-linecap:butt;stroke-linejoin:miter;stroke-miterlimit:4;stroke-dasharray:none;stroke-opacity:1"
       d="m 30.28859,45.20551 c 0,0 1.847325,-2.575107 4.643944,-2.439159 2.79662,0.135945 10.18522,6.40892 10.150695,9.535694 -0.03453,3.126777 0.851527,18.600488 0.851527,18.600488 0,0 -17.993945,-0.410921 -15.646166,-25.697023 z"
       id="path11044"
       sodipodi:nodetypes="csscc" />
    <path
       style="fill:none;stroke:#000000;stroke-width:0.465;stroke-linecap:butt;stroke-linejoin:miter;stroke-miterlimit:4;stroke-dasharray:none;stroke-opacity:1"
       d="M 49.951463,70.946076 C 49.77048,69.146911 48.662582,57.28905 50.630571,51.637547 c 1.967988,-5.651501 13.258049,-7.282862 12.87826,-6.506022 -0.379785,0.776838 -6.366946,16.563129 -0.946737,14.997787 5.460947,-1.577108 5.069885,-1.564644 5.069885,-1.564644 0,0 -0.08268,5.957527 -6.004505,9.337908 -6.527245,3.725976 -11.676011,3.0435 -11.676011,3.0435 z"
       id="path11046"
       sodipodi:nodetypes="cssscsc" />
    <path
       style="opacity:1;fill:#ffffff;fill-opacity:1;stroke:#000000;stroke-width:0.43937;stroke-linecap:round;stroke-linejoin:round;stroke-miterlimit:4;stroke-dasharray:none;stroke-opacity:1;paint-order:markers stroke fill"
       d="m 221.375,150.7907 c -6.21723,-2.07237 -10.95815,-10.06064 -14.57847,-24.56412 -0.54594,-2.18712 -1.06759,-4.43514 -1.1592,-4.99559 l -0.16658,-1.01902 19.29962,-5.93911 c 13.46592,-4.14389 19.35322,-5.8524 19.47692,-5.65224 0.0975,0.15777 0.94034,3.32593 1.87294,7.04035 1.9857,7.90868 1.9887,8.02863 0.30002,11.96403 -4.47502,10.42879 -12.29513,19.85527 -18.70644,22.54902 -2.09295,0.87937 -4.76955,1.13976 -6.33881,0.61668 z"
       id="path14878"
       transform="scale(0.26458333)" />
    <path
       style="opacity:1;fill:#961719;fill-opacity:1;stroke:#000000;stroke-width:0.43937;stroke-linecap:round;stroke-linejoin:round;stroke-miterlimit:4;stroke-dasharray:none;stroke-opacity:1;paint-order:markers stroke fill"
       d="m 190.0506,267.18275 c -0.36381,-0.25454 -0.59496,-2.28579 -1.15879,-10.18275 -1.26254,-17.68315 -1.12619,-35.04953 0.36898,-46.9954 1.9501,-15.5807 5.0229,-21.40916 14.71937,-27.91961 8.37276,-5.62167 22.38021,-10.40115 32.62461,-11.13182 2.12729,-0.15173 2.22087,-0.13708 2.03629,0.31889 -5.05152,12.47932 -9.95682,29.91352 -11.28338,40.10294 -0.50747,3.89795 -0.38379,10.19908 0.23874,12.16274 0.66295,2.09117 1.83457,3.61248 3.40358,4.41944 2.00726,1.03235 3.87217,0.87063 9.5,-0.82385 5.05052,-1.52066 11.02164,-3.55346 12.97593,-4.41751 0.74301,-0.32851 1.4052,-0.54302 1.47153,-0.47669 0.17382,0.17382 -0.3654,2.88223 -1.12205,5.63587 -2.43873,8.87504 -7.76999,17.34647 -14.43937,22.94428 -8.80885,7.39353 -24.31788,13.87677 -37.81,15.80571 -3.9665,0.56708 -11.02398,0.90862 -11.52544,0.55776 z"
       id="path15034"
       transform="scale(0.26458333)" />
    <path
       style="opacity:1;fill:#961719;fill-opacity:1;stroke:#000000;stroke-width:0.43937;stroke-linecap:round;stroke-linejoin:round;stroke-miterlimit:4;stroke-dasharray:none;stroke-opacity:1;paint-order:markers stroke fill"
       d="m 168.625,266.38687 c -14.18887,-2.53822 -26.82083,-9.63588 -35.79901,-20.11478 -2.18242,-2.54721 -5.3777,-7.0302 -6.89092,-9.66797 -5.5205,-9.62303 -9.03866,-21.347 -10.57167,-35.22912 -0.76153,-6.89604 -0.72926,-24.92168 0.0527,-29.44244 0.30499,-1.76319 4.58063,-5.54388 8.40356,-7.43074 3.78634,-1.8688 7.38837,-2.33682 10.52607,-1.36768 10.17457,3.1426 27.37053,17.79721 32.88931,28.02866 1.81567,3.36613 2.06679,4.37179 2.17557,8.7122 0.29899,11.93029 1.00355,27.70099 2.34218,52.42648 0.41097,7.59082 0.74721,13.97519 0.74721,14.1875 0,0.49164 -0.65195,0.47446 -3.875,-0.10211 z"
       id="path15073"
       transform="scale(0.26458333)" />
    <path
       style="opacity:1;fill:#ffffff;fill-opacity:1;stroke:#000000;stroke-width:0.43937;stroke-linecap:round;stroke-linejoin:round;stroke-miterlimit:4;stroke-dasharray:none;stroke-opacity:1;paint-order:markers stroke fill"
       d="m 134.125,141.22681 c -3.48284,-0.85874 -7.33677,-3.34047 -9.15686,-5.89655 l -0.48791,-0.68521 7.39985,-18.94753 c 4.06991,-10.42113 7.47749,-19.020342 7.57238,-19.109347 0.0949,-0.089 4.58115,5.190427 9.96946,11.732077 l 9.79691,11.8939 -0.6494,1.14293 c -1.46705,2.58196 -4.99476,7.78898 -6.73209,9.93679 -3.73073,4.6122 -7.85783,7.92467 -11.53787,9.26045 -1.61335,0.58561 -5.02138,0.9568 -6.17447,0.67249 z"
       id="path15112"
       transform="scale(0.26458333)" />
  </g>
  <g
     inkscape:groupmode="layer"
     id="layer9"
     inkscape:label="嘴"
     style="display:inline">
    <path
       style="opacity:1;fill:#5d5d5d;fill-opacity:1;stroke:#cccccc;stroke-width:0.264;stroke-linecap:round;stroke-linejoin:round;stroke-miterlimit:4;stroke-dasharray:none;stroke-opacity:1;paint-order:markers stroke fill"
       d="m 45.971537,35.304079 c -0.03598,-0.05821 -0.259932,-0.195781 -0.497676,-0.305713 -0.411062,-0.190071 -0.569735,-0.199874 -3.234965,-0.199874 H 39.436194 L 39.29479,34.54664 c -0.415309,-0.739708 0.888526,-2.664626 2.508229,-3.703028 1.953657,-1.252501 3.748413,-1.185781 5.15507,0.191643 1.189373,1.16465 1.195337,2.293037 0.01876,3.550882 -0.565529,0.604597 -0.919253,0.857205 -1.005322,0.717942 z"
       id="path16259" />
    <text
       xml:space="preserve"
       style="font-size:10.5833px;line-height:1.25;font-family:'DejaVu Math TeX Gyre';-inkscape-font-specification:'DejaVu Math TeX Gyre';stroke-width:0.264583"
       x="41.019188"
       y="39.148304"
       id="text38706"><tspan
         sodipodi:role="line"
         id="tspan38704"
         style="stroke-width:0.264583"
         x="41.019188"
         y="39.148304" /></text>
    <path
       style="fill:none;stroke:#cbcbcb;stroke-width:0.165;stroke-linecap:butt;stroke-linejoin:miter;stroke-miterlimit:4;stroke-dasharray:none;stroke-opacity:1"
       d="m 39.205513,34.501312 c 0,0 4.350298,-2.529583 7.988493,-0.07041"
       id="path95086"
       sodipodi:nodetypes="cc" />
  </g>
  <g
     inkscape:groupmode="layer"
     id="layer12"
     inkscape:label="文字"
     style="display:inline">
    <text
       xml:space="preserve"
       style="font-size:7.65824px;line-height:0.65;font-family:'DejaVu Math TeX Gyre';-inkscape-font-specification:'DejaVu Math TeX Gyre';text-align:start;letter-spacing:-1.41837px;word-spacing:0px;baseline-shift:baseline;text-anchor:start;fill:#ffffff;stroke:none;stroke-width:0.168853;stroke-opacity:1"
       x="42.539059"
       y="41.664154"
       id="text50885"
       transform="rotate(2.8363152)"><tspan
         sodipodi:role="line"
         id="tspan50883"
         style="font-style:normal;font-variant:normal;font-weight:normal;font-stretch:normal;font-family:Verdana;-inkscape-font-specification:Verdana;text-align:start;baseline-shift:baseline;text-anchor:start;fill:#ffffff;stroke:none;stroke-width:0.168853;stroke-opacity:1"
         x="42.539059"
         y="41.664154">o11b</tspan></text>
  </g>
  <g
     inkscape:groupmode="layer"
     id="layer8"
     inkscape:label="目"
     style="display:inline;opacity:1">
    <path
       style="opacity:1;fill:#000000;fill-opacity:1;stroke:#cccccc;stroke-width:0.45704;stroke-linecap:round;stroke-linejoin:round;stroke-miterlimit:4;stroke-dasharray:none;stroke-opacity:1;paint-order:markers stroke fill"
       id="path15799"
       sodipodi:type="arc"
       sodipodi:cx="44.069191"
       sodipodi:cy="45.23999"
       sodipodi:rx="1.8954618"
       sodipodi:ry="2.4285824"
       sodipodi:start="3.9718632"
       sodipodi:end="3.9552302"
       sodipodi:open="true"
       sodipodi:arc-type="arc"
       d="m 42.790368,43.44742 a 1.8954618,2.4285824 0 0 1 2.67256,0.146624 1.8954618,2.4285824 0 0 1 -0.103323,3.424828 1.8954618,2.4285824 0 0 1 -2.673419,-0.118142 1.8954618,2.4285824 0 0 1 0.08109,-3.42581"
       transform="matrix(0.95194824,-0.30625896,0.28830355,0.95753907,0,0)" />
    <path
       style="display:inline;opacity:1;fill:#000000;fill-opacity:1;stroke:#cccccc;stroke-width:0.45703;stroke-linecap:round;stroke-linejoin:round;stroke-miterlimit:4;stroke-dasharray:none;stroke-opacity:1;paint-order:markers stroke fill"
       id="path15799-8"
       sodipodi:type="arc"
       sodipodi:cx="50.084713"
       sodipodi:cy="-0.50115508"
       sodipodi:rx="1.8753628"
       sodipodi:ry="2.4051774"
       sodipodi:start="3.9718632"
       sodipodi:end="3.9552302"
       sodipodi:open="true"
       sodipodi:arc-type="arc"
       transform="matrix(0.82780669,0.56101344,-0.57438098,0.81858811,0,0)"
       d="m 48.819451,-2.27645 a 1.8753628,2.4051774 0 0 1 2.64422,0.1452112 1.8753628,2.4051774 0 0 1 -0.102228,3.3918221 1.8753628,2.4051774 0 0 1 -2.64507,-0.1170032 1.8753628,2.4051774 0 0 1 0.08023,-3.3927951" />
  </g>
  <g
     inkscape:groupmode="layer"
     id="layer11"
     inkscape:label="右羽"
     style="display:inline">
    <path
       style="fill:#191a53;fill-opacity:1;stroke:#000000;stroke-width:0.365;stroke-linecap:butt;stroke-linejoin:miter;stroke-miterlimit:4;stroke-dasharray:none;stroke-opacity:1"
       d="m 66.364214,34.512645 2.05946,2.191911 c 4.395839,4.67855 6.706826,10.503277 6.229284,13.237301 -0.229979,1.316673 -0.564764,1.777412 -0.924014,2.915744 -0.861123,2.728581 -3.206486,5.050595 -12.37117,7.473121 0,0 -5.03222,1.031719 0.964037,-12.712131 5.204721,-11.929592 3.956313,-13.090466 3.956313,-13.090466"
       id="path23051"
       sodipodi:nodetypes="cssscsc" />
  </g>
  <g
     inkscape:groupmode="layer"
     id="layer15"
     inkscape:label="右羽模様"
     style="display:inline">
    <path
       style="display:inline;fill:#ffffff;fill-opacity:1;stroke:#000000;stroke-width:0.264583px;stroke-linecap:butt;stroke-linejoin:miter;stroke-opacity:1"
       d="m 74.159395,51.652572 c 0.07878,-3.980259 -9.419537,-9.76704 -9.419537,-9.76704 l -1.081229,3.238915 c 0,0 8.539385,4.90275 9.628456,9.04209 z"
       id="path99509-3"
       sodipodi:nodetypes="ccccc" />
  </g>
  <g
     inkscape:groupmode="layer"
     id="layer10"
     inkscape:label="目のハイライト"
     style="display:inline">
    <path
       style="opacity:1;fill:#ffffff;fill-opacity:1;stroke:#676767;stroke-width:0;stroke-linecap:round;stroke-linejoin:round;stroke-miterlimit:4;stroke-dasharray:none;stroke-opacity:1;paint-order:markers stroke fill"
       id="path22637"
       sodipodi:type="arc"
       sodipodi:cx="1.8203546"
       sodipodi:cy="61.126156"
       sodipodi:rx="0.85606205"
       sodipodi:ry="0.75653875"
       sodipodi:start="3.9718632"
       sodipodi:end="3.9552302"
       sodipodi:open="true"
       sodipodi:arc-type="arc"
       d="m 1.24279,60.567744 a 0.85606205,0.75653875 0 0 1 1.2070288,0.04568 0.85606205,0.75653875 0 0 1 -0.046665,1.066884 0.85606205,0.75653875 0 0 1 -1.2074169,-0.0368 0.85606205,0.75653875 0 0 1 0.036623,-1.06719"
       transform="matrix(0.59264056,-0.80546705,0.86953848,0.4938652,0,0)" />
    <path
       style="opacity:1;fill:#ffffff;fill-opacity:1;stroke:#676767;stroke-width:0;stroke-linecap:round;stroke-linejoin:round;stroke-miterlimit:4;stroke-dasharray:none;stroke-opacity:1;paint-order:markers stroke fill"
       id="path22639"
       sodipodi:type="arc"
       sodipodi:cx="28.446642"
       sodipodi:cy="40.468052"
       sodipodi:rx="0.89689648"
       sodipodi:ry="0.7837469"
       sodipodi:start="3.9718632"
       sodipodi:end="3.9552302"
       sodipodi:open="true"
       sodipodi:arc-type="arc"
       d="m 27.841527,39.889557 a 0.89689648,0.7837469 0 0 1 1.264605,0.04732 0.89689648,0.7837469 0 0 1 -0.04889,1.105253 0.89689648,0.7837469 0 0 1 -1.265011,-0.03813 0.89689648,0.7837469 0 0 1 0.03837,-1.10557"
       transform="rotate(-22.45609)" />
  </g>
</svg>
